<svg width="39" height="36" viewBox="0 0 39 36" fill="none" xmlns="http://www.w3.org/2000/svg">
<rect width="1" height="1" transform="matrix(1 0 0 -1 8 29)" fill="black"/>
<rect width="1" height="1" transform="matrix(1 0 0 -1 8 30)" fill="black"/>
<rect width="1" height="1" transform="matrix(1 0 0 -1 9 31)" fill="black"/>
<rect width="1" height="1" transform="matrix(1 0 0 -1 8 31)" fill="black"/>
<rect width="1" height="1" transform="matrix(1 0 0 -1 10 32)" fill="black"/>
<rect width="1" height="1" transform="matrix(1 0 0 -1 11 32)" fill="black"/>
<rect width="1" height="1" transform="matrix(1 0 0 -1 12 32)" fill="black"/>
<rect width="1" height="1" transform="matrix(1 0 0 -1 13 32)" fill="black"/>
<rect width="1" height="1" transform="matrix(1 0 0 -1 14 31)" fill="black"/>
<rect width="1" height="1" transform="matrix(1 0 0 -1 15 30)" fill="black"/>
<rect width="1" height="1" transform="matrix(1 0 0 -1 15 36)" fill="black"/>
<rect width="1" height="1" transform="matrix(1 0 0 -1 13 36)" fill="black"/>
<rect width="1" height="1" transform="matrix(1 0 0 -1 12 36)" fill="black"/>
<rect width="1" height="1" transform="matrix(1 0 0 -1 14 36)" fill="black"/>
<rect width="1" height="1" transform="matrix(1 0 0 -1 24 33)" fill="black"/>
<rect width="1" height="1" transform="matrix(1 0 0 -1 25 32)" fill="black"/>
<rect width="1" height="1" transform="matrix(1 0 0 -1 24 32)" fill="black"/>
<rect width="1" height="1" transform="matrix(1 0 0 -1 24 32)" fill="black"/>
<rect width="1" height="1" transform="matrix(1 0 0 -1 25 33)" fill="black"/>
<rect width="1" height="1" transform="matrix(1 0 0 -1 25 33)" fill="black"/>
<rect width="1" height="1" transform="matrix(1 0 0 -1 32 31)" fill="black"/>
<rect width="1" height="1" transform="matrix(1 0 0 -1 32 32)" fill="black"/>
<rect width="1" height="1" transform="matrix(1 0 0 -1 31 33)" fill="black"/>
<rect width="1" height="1" transform="matrix(1 0 0 -1 30 33)" fill="black"/>
<rect width="1" height="1" transform="matrix(1 0 0 -1 29 34)" fill="black"/>
<rect width="1" height="1" transform="matrix(1 0 0 -1 30 35)" fill="black"/>
<rect width="1" height="1" transform="matrix(1 0 0 -1 31 35)" fill="black"/>
<rect width="1" height="1" transform="matrix(1 0 0 -1 32 35)" fill="black"/>
<rect width="1" height="1" transform="matrix(1 0 0 -1 33 34)" fill="black"/>
<rect width="1" height="1" transform="matrix(1 0 0 -1 31 31)" fill="black"/>
<rect width="1" height="1" transform="matrix(1 0 0 -1 30 32)" fill="black"/>
<rect width="1" height="1" transform="matrix(1 0 0 -1 29 33)" fill="black"/>
<rect width="1" height="1" transform="matrix(1 0 0 -1 28 34)" fill="black"/>
<rect width="1" height="1" transform="matrix(1 0 0 -1 27 35)" fill="black"/>
<rect width="1" height="1" transform="matrix(1 0 0 -1 26 35)" fill="black"/>
<rect width="1" height="1" transform="matrix(1 0 0 -1 25 36)" fill="black"/>
<rect width="1" height="1" transform="matrix(1 0 0 -1 24 36)" fill="black"/>
<rect width="1" height="1" transform="matrix(1 0 0 -1 23 36)" fill="black"/>
<rect width="1" height="1" transform="matrix(1 0 0 -1 22 36)" fill="black"/>
<rect width="1" height="1" transform="matrix(1 0 0 -1 21 36)" fill="black"/>
<rect width="1" height="1" transform="matrix(1 0 0 -1 20 36)" fill="black"/>
<rect width="1" height="1" transform="matrix(1 0 0 -1 19 35)" fill="black"/>
<rect width="1" height="1" transform="matrix(1 0 0 -1 18 35)" fill="black"/>
<rect width="1" height="1" transform="matrix(1 0 0 -1 19 36)" fill="black"/>
<rect width="1" height="1" transform="matrix(1 0 0 -1 17 36)" fill="black"/>
<rect width="1" height="1" transform="matrix(1 0 0 -1 16 36)" fill="black"/>
<rect width="1" height="1" transform="matrix(1 0 0 -1 11 36)" fill="black"/>
<rect width="1" height="1" transform="matrix(1 0 0 -1 10 36)" fill="black"/>
<rect width="1" height="1" transform="matrix(1 0 0 -1 9 36)" fill="black"/>
<rect width="1" height="1" transform="matrix(1 0 0 -1 8 36)" fill="black"/>
<rect width="1" height="1" transform="matrix(1 0 0 -1 7 36)" fill="black"/>
<rect width="1" height="1" transform="matrix(1 0 0 -1 6 36)" fill="black"/>
<rect width="1" height="1" transform="matrix(1 0 0 -1 5 36)" fill="black"/>
<rect width="1" height="1" transform="matrix(1 0 0 -1 4 36)" fill="black"/>
<rect width="1" height="1" transform="matrix(1 0 0 -1 3 36)" fill="black"/>
<rect width="1" height="1" transform="matrix(1 0 0 -1 8 33)" fill="black"/>
<rect width="1" height="1" transform="matrix(1 0 0 -1 0 36)" fill="black"/>
<rect width="1" height="1" transform="matrix(1 0 0 -1 1 36)" fill="black"/>
<rect width="1" height="1" transform="matrix(1 0 0 -1 30 19)" fill="black"/>
<rect width="1" height="1" transform="matrix(1 0 0 -1 31 19)" fill="black"/>
<rect width="1" height="1" transform="matrix(1 0 0 -1 31 20)" fill="black"/>
<rect width="1" height="1" transform="matrix(1 0 0 -1 32 19)" fill="black"/>
<rect width="1" height="1" transform="matrix(1 0 0 -1 32 20)" fill="black"/>
<rect width="1" height="1" transform="matrix(1 0 0 -1 33 20)" fill="black"/>
<rect width="1" height="1" transform="matrix(1 0 0 -1 32 21)" fill="black"/>
<rect width="1" height="1" transform="matrix(1 0 0 -1 36 28)" fill="black"/>
<rect width="1" height="1" transform="matrix(1 0 0 -1 36 29)" fill="black"/>
<rect width="1" height="1" transform="matrix(1 0 0 -1 35 28)" fill="black"/>
<rect width="1" height="1" transform="matrix(1 0 0 -1 35 11)" fill="black"/>
<rect width="1" height="1" transform="matrix(1 0 0 -1 35 10)" fill="black"/>
<rect width="1" height="1" transform="matrix(1 0 0 -1 36 27)" fill="black"/>
<rect width="1" height="1" transform="matrix(1 0 0 -1 37 30)" fill="black"/>
<rect width="1" height="1" transform="matrix(1 0 0 -1 33 19)" fill="black"/>
<rect width="1" height="1" transform="matrix(1 0 0 -1 33 19)" fill="black"/>
<rect width="1" height="1" transform="matrix(1 0 0 -1 32 18)" fill="black"/>
<rect width="1" height="1" transform="matrix(1 0 0 -1 2 36)" fill="black"/>
<rect width="1" height="1" transform="matrix(1 0 0 -1 0 35)" fill="black"/>
<rect width="1" height="1" transform="matrix(1 0 0 -1 1 34)" fill="black"/>
<rect width="1" height="1" transform="matrix(1 0 0 -1 2 34)" fill="black"/>
<rect width="1" height="1" transform="matrix(1 0 0 -1 3 34)" fill="black"/>
<rect width="1" height="1" transform="matrix(1 0 0 -1 4 34)" fill="black"/>
<rect width="1" height="1" transform="matrix(1 0 0 -1 5 34)" fill="black"/>
<rect width="1" height="1" transform="matrix(1 0 0 -1 6 34)" fill="black"/>
<rect width="1" height="1" transform="matrix(1 0 0 -1 7 34)" fill="black"/>
<rect width="1" height="1" transform="matrix(1 0 0 -1 8 34)" fill="black"/>
<rect width="1" height="1" transform="matrix(1 0 0 -1 9 33)" fill="black"/>
<rect width="1" height="1" transform="matrix(1 0 0 -1 10 33)" fill="black"/>
<rect width="1" height="1" transform="matrix(1 0 0 -1 11 33)" fill="black"/>
<rect width="1" height="1" transform="matrix(1 0 0 -1 32 6)" fill="black"/>
<rect width="1" height="1" transform="matrix(1 0 0 -1 31 16)" fill="black"/>
<rect width="1" height="1" transform="matrix(1 0 0 -1 32 16)" fill="black"/>
<rect width="1" height="1" transform="matrix(1 0 0 -1 33 16)" fill="black"/>
<rect width="1" height="1" transform="matrix(1 0 0 -1 33 15)" fill="black"/>
<rect width="1" height="1" transform="matrix(1 0 0 -1 34 14)" fill="black"/>
<rect width="1" height="1" transform="matrix(1 0 0 -1 34 13)" fill="black"/>
<rect width="1" height="1" transform="matrix(1 0 0 -1 34 12)" fill="black"/>
<rect width="1" height="1" transform="matrix(1 0 0 -1 34 11)" fill="black"/>
<rect width="1" height="1" transform="matrix(1 0 0 -1 34 10)" fill="black"/>
<rect width="1" height="1" transform="matrix(1 0 0 -1 34 9)" fill="black"/>
<rect width="1" height="1" transform="matrix(1 0 0 -1 33 8)" fill="black"/>
<rect width="1" height="1" transform="matrix(1 0 0 -1 33 7)" fill="black"/>
<rect width="1" height="1" transform="matrix(1 0 0 -1 32 28)" fill="black"/>
<rect width="1" height="1" transform="matrix(1 0 0 -1 29 17)" fill="black"/>
<rect width="1" height="1" transform="matrix(1 0 0 -1 30 17)" fill="black"/>
<rect width="1" height="1" transform="matrix(1 0 0 -1 28 19)" fill="black"/>
<rect width="1" height="1" transform="matrix(1 0 0 -1 27 20)" fill="black"/>
<rect width="1" height="1" transform="matrix(1 0 0 -1 27 21)" fill="black"/>
<rect width="1" height="1" transform="matrix(1 0 0 -1 26 22)" fill="black"/>
<rect width="1" height="1" transform="matrix(1 0 0 -1 26 23)" fill="black"/>
<rect width="1" height="1" transform="matrix(1 0 0 -1 25 24)" fill="black"/>
<rect width="1" height="1" transform="matrix(1 0 0 -1 24 25)" fill="black"/>
<rect width="1" height="1" transform="matrix(1 0 0 -1 23 26)" fill="black"/>
<rect width="1" height="1" transform="matrix(1 0 0 -1 21 27)" fill="black"/>
<rect width="1" height="1" transform="matrix(1 0 0 -1 22 26)" fill="black"/>
<rect width="1" height="1" transform="matrix(1 0 0 -1 28 18)" fill="black"/>
<rect width="1" height="1" transform="matrix(1 0 0 -1 9 28)" fill="black"/>
<rect width="1" height="1" transform="matrix(1 0 0 -1 9 27)" fill="black"/>
<rect width="1" height="1" transform="matrix(1 0 0 -1 10 26)" fill="black"/>
<rect width="1" height="1" transform="matrix(1 0 0 -1 10 29)" fill="black"/>
<rect width="1" height="1" transform="matrix(1 0 0 -1 11 26)" fill="black"/>
<rect width="1" height="1" transform="matrix(1 0 0 -1 13 27)" fill="black"/>
<rect width="1" height="1" transform="matrix(1 0 0 -1 18 27)" fill="black"/>
<rect width="1" height="1" transform="matrix(1 0 0 -1 12 25)" fill="black"/>
<rect width="1" height="1" transform="matrix(1 0 0 -1 14 25)" fill="black"/>
<rect width="1" height="1" transform="matrix(1 0 0 -1 12 24)" fill="black"/>
<rect width="1" height="1" transform="matrix(1 0 0 -1 13 24)" fill="black"/>
<rect width="1" height="1" transform="matrix(1 0 0 -1 13 23)" fill="black"/>
<rect width="1" height="1" transform="matrix(1 0 0 -1 14 26)" fill="black"/>
<rect width="1" height="1" transform="matrix(1 0 0 -1 15 26)" fill="black"/>
<rect width="1" height="1" transform="matrix(1 0 0 -1 15 27)" fill="black"/>
<rect width="1" height="1" transform="matrix(1 0 0 -1 15 28)" fill="black"/>
<rect width="1" height="1" transform="matrix(1 0 0 -1 16 27)" fill="black"/>
<rect width="1" height="1" transform="matrix(1 0 0 -1 17 27)" fill="black"/>
<rect width="1" height="1" transform="matrix(1 0 0 -1 19 27)" fill="black"/>
<rect width="1" height="1" transform="matrix(1 0 0 -1 20 27)" fill="black"/>
<rect width="1" height="1" transform="matrix(1 0 0 -1 19 32)" fill="black"/>
<rect width="1" height="1" transform="matrix(1 0 0 -1 20 33)" fill="black"/>
<rect width="1" height="1" transform="matrix(1 0 0 -1 21 33)" fill="black"/>
<rect width="1" height="1" transform="matrix(1 0 0 -1 22 34)" fill="black"/>
<rect width="1" height="1" transform="matrix(1 0 0 -1 22 33)" fill="black"/>
<rect width="1" height="1" transform="matrix(1 0 0 -1 22 32)" fill="black"/>
<rect width="1" height="1" transform="matrix(1 0 0 -1 23 32)" fill="black"/>
<rect width="1" height="1" transform="matrix(1 0 0 -1 23 33)" fill="black"/>
<rect width="1" height="1" transform="matrix(1 0 0 -1 21 32)" fill="black"/>
<rect width="1" height="1" transform="matrix(1 0 0 -1 22 31)" fill="black"/>
<rect width="1" height="1" transform="matrix(1 0 0 -1 23 31)" fill="black"/>
<rect width="1" height="1" transform="matrix(1 0 0 -1 23 34)" fill="black"/>
<rect width="1" height="1" transform="matrix(1 0 0 -1 24 34)" fill="black"/>
<rect width="1" height="1" transform="matrix(1 0 0 -1 20 32)" fill="black"/>
<rect width="1" height="1" transform="matrix(1 0 0 -1 31 5)" fill="black"/>
<rect width="1" height="1" transform="matrix(1 0 0 -1 30 4)" fill="black"/>
<rect width="1" height="1" transform="matrix(1 0 0 -1 29 4)" fill="black"/>
<rect width="1" height="1" transform="matrix(1 0 0 -1 28 4)" fill="black"/>
<rect width="1" height="1" transform="matrix(1 0 0 -1 27 3)" fill="black"/>
<rect width="1" height="1" transform="matrix(1 0 0 -1 26 3)" fill="black"/>
<rect width="1" height="1" transform="matrix(1 0 0 -1 25 2)" fill="black"/>
<rect width="1" height="1" transform="matrix(1 0 0 -1 26 1)" fill="black"/>
<rect width="1" height="1" transform="matrix(1 0 0 -1 27 1)" fill="black"/>
<rect width="1" height="1" transform="matrix(1 0 0 -1 28 1)" fill="black"/>
<rect width="1" height="1" transform="matrix(1 0 0 -1 29 2)" fill="black"/>
<rect width="1" height="1" transform="matrix(1 0 0 -1 30 2)" fill="black"/>
<rect width="1" height="1" transform="matrix(1 0 0 -1 31 2)" fill="black"/>
<rect width="1" height="1" transform="matrix(1 0 0 -1 32 3)" fill="black"/>
<rect width="1" height="1" transform="matrix(1 0 0 -1 33 4)" fill="black"/>
<rect width="1" height="1" transform="matrix(1 0 0 -1 35 5)" fill="black"/>
<rect width="1" height="1" transform="matrix(1 0 0 -1 35 6)" fill="black"/>
<rect width="1" height="1" transform="matrix(1 0 0 -1 36 7)" fill="black"/>
<rect width="1" height="1" transform="matrix(1 0 0 -1 36 8)" fill="black"/>
<rect width="1" height="1" transform="matrix(1 0 0 -1 37 9)" fill="black"/>
<rect width="1" height="1" transform="matrix(1 0 0 -1 37 10)" fill="black"/>
<rect width="1" height="1" transform="matrix(1 0 0 -1 37 11)" fill="black"/>
<rect width="1" height="1" transform="matrix(1 0 0 -1 37 12)" fill="black"/>
<rect width="1" height="1" transform="matrix(1 0 0 -1 37 13)" fill="black"/>
<rect width="1" height="1" transform="matrix(1 0 0 -1 37 14)" fill="black"/>
<rect width="1" height="1" transform="matrix(1 0 0 -1 37 15)" fill="black"/>
<rect width="1" height="1" transform="matrix(1 0 0 -1 37 16)" fill="black"/>
<rect width="1" height="1" transform="matrix(1 0 0 -1 38 17)" fill="black"/>
<rect width="1" height="1" transform="matrix(1 0 0 -1 38 18)" fill="black"/>
<rect width="1" height="1" transform="matrix(1 0 0 -1 38 19)" fill="black"/>
<rect width="1" height="1" transform="matrix(1 0 0 -1 38 20)" fill="black"/>
<rect width="1" height="1" transform="matrix(1 0 0 -1 38 21)" fill="black"/>
<rect width="1" height="1" transform="matrix(1 0 0 -1 38 22)" fill="black"/>
<rect width="1" height="1" transform="matrix(1 0 0 -1 38 23)" fill="black"/>
<rect width="1" height="1" transform="matrix(1 0 0 -1 38 24)" fill="black"/>
<rect width="1" height="1" transform="matrix(1 0 0 -1 38 25)" fill="black"/>
<rect width="1" height="1" transform="matrix(1 0 0 -1 37 26)" fill="black"/>
<rect width="1" height="1" transform="matrix(1 0 0 -1 37 27)" fill="black"/>
<rect width="1" height="1" transform="matrix(1 0 0 -1 37 28)" fill="black"/>
<rect width="1" height="1" transform="matrix(1 0 0 -1 37 29)" fill="black"/>
<rect width="1" height="1" transform="matrix(1 0 0 -1 38 31)" fill="black"/>
<rect width="1" height="1" transform="matrix(1 0 0 -1 38 32)" fill="black"/>
<rect width="1" height="1" transform="matrix(1 0 0 -1 37 33)" fill="black"/>
<rect width="1" height="1" transform="matrix(1 0 0 -1 37 34)" fill="black"/>
<rect width="1" height="1" transform="matrix(1 0 0 -1 36 35)" fill="black"/>
<rect width="1" height="1" transform="matrix(1 0 0 -1 36 36)" fill="black"/>
<rect width="1" height="1" transform="matrix(1 0 0 -1 35 36)" fill="black"/>
<rect width="1" height="1" transform="matrix(1 0 0 -1 34 36)" fill="black"/>
<rect width="1" height="1" transform="matrix(1 0 0 -1 33 36)" fill="black"/>
<rect width="1" height="1" transform="matrix(1 0 0 -1 32 36)" fill="black"/>
<rect width="1" height="1" transform="matrix(1 0 0 -1 34 33)" fill="black"/>
<rect width="1" height="1" transform="matrix(1 0 0 -1 34 32)" fill="black"/>
<rect width="1" height="1" transform="matrix(1 0 0 -1 33 31)" fill="black"/>
<rect width="1" height="1" transform="matrix(1 0 0 -1 32 30)" fill="black"/>
<rect width="1" height="1" transform="matrix(1 0 0 -1 32 29)" fill="black"/>
<rect width="1" height="1" transform="matrix(1 0 0 -1 38 30)" fill="black"/>
<rect width="1" height="1" transform="matrix(1 0 0 -1 34 4)" fill="black"/>
</svg>
