<svg width="300" height="69" viewBox="0 0 300 69" fill="none" xmlns="http://www.w3.org/2000/svg">
<g clip-path="url(#clip0_891_43407)">
<path d="M23.8526 33.8031H21.6846V35.9712H23.8526V33.8031Z" fill="black"/>
<path d="M26.0206 39.2231H23.8525V41.3911H26.0206V39.2231Z" fill="black"/>
<path d="M17.3487 39.2231H15.1807V41.3911H17.3487V39.2231Z" fill="black"/>
<path d="M8.67633 37.0551H6.5083V39.2231H8.67633V37.0551Z" fill="black"/>
<path d="M8.67633 34.887H6.5083V37.0551H8.67633V34.887Z" fill="black"/>
<path d="M8.67633 32.7189H6.5083V34.8869H8.67633V32.7189Z" fill="black"/>
<path d="M8.67633 30.5509H6.5083V32.7189H8.67633V30.5509Z" fill="black"/>
<path d="M8.67633 28.3832H6.5083V30.5512H8.67633V28.3832Z" fill="black"/>
<path d="M8.67633 26.215H6.5083V28.3831H8.67633V26.215Z" fill="black"/>
<path d="M8.67633 24.047H6.5083V26.2151H8.67633V24.047Z" fill="black"/>
<path d="M8.67633 21.879H6.5083V24.047H8.67633V21.879Z" fill="black"/>
<path d="M8.67633 19.7107H6.5083V21.8787H8.67633V19.7107Z" fill="black"/>
<path d="M8.67633 17.5428H6.5083V19.7109H8.67633V17.5428Z" fill="black"/>
<path d="M8.67633 15.3748H6.5083V17.5428H8.67633V15.3748Z" fill="black"/>
<path d="M8.67633 13.207H6.5083V15.375H8.67633V13.207Z" fill="black"/>
<path d="M8.67633 11.0388H6.5083V13.2068H8.67633V11.0388Z" fill="black"/>
<path d="M8.67633 8.87071H6.5083V11.0387H8.67633V8.87071Z" fill="black"/>
<path d="M10.8448 6.7029H8.67676V8.87092H10.8448V6.7029Z" fill="black"/>
<path d="M15.1802 6.7029H13.0122V8.87092H15.1802V6.7029Z" fill="black"/>
<path d="M17.3487 6.7029H15.1807V8.87092H17.3487V6.7029Z" fill="black"/>
<path d="M19.5167 6.7029H17.3486V8.87092H19.5167V6.7029Z" fill="black"/>
<path d="M21.6846 6.7029H19.5166V8.87092H21.6846V6.7029Z" fill="black"/>
<path d="M23.8526 6.7029H21.6846V8.87092H23.8526V6.7029Z" fill="black"/>
<path d="M13.0123 6.7029H10.8442V8.87092H13.0123V6.7029Z" fill="black"/>
<path d="M34.6924 39.2231H32.5244V41.3911H34.6924V39.2231Z" fill="black"/>
<path d="M43.3653 39.2231H41.1973V41.3911H43.3653V39.2231Z" fill="black"/>
<path d="M26.0206 6.7029H23.8525V8.87092H26.0206V6.7029Z" fill="black"/>
<path d="M28.1885 39.2231H26.0205V41.3911H28.1885V39.2231Z" fill="black"/>
<path d="M19.5167 39.2231H17.3486V41.3911H19.5167V39.2231Z" fill="black"/>
<path d="M10.8448 39.2231H8.67676V41.3911H10.8448V39.2231Z" fill="black"/>
<path d="M36.8609 39.2231H34.6929V41.3911H36.8609V39.2231Z" fill="black"/>
<path d="M45.5328 39.2231H43.3647V41.3911H45.5328V39.2231Z" fill="black"/>
<path d="M28.1885 6.7029H26.0205V8.87092H28.1885V6.7029Z" fill="black"/>
<path d="M30.357 39.2231H28.189V41.3911H30.357V39.2231Z" fill="black"/>
<path d="M21.6846 39.2231H19.5166V41.3911H21.6846V39.2231Z" fill="black"/>
<path d="M13.0123 39.2231H10.8442V41.3911H13.0123V39.2231Z" fill="black"/>
<path d="M39.0289 39.2231H36.8608V41.3911H39.0289V39.2231Z" fill="black"/>
<path d="M47.7007 39.2231H45.5327V41.3911H47.7007V39.2231Z" fill="black"/>
<path d="M30.357 6.7029H28.189V8.87092H30.357V6.7029Z" fill="black"/>
<path d="M32.525 39.2231H30.3569V41.3911H32.525V39.2231Z" fill="black"/>
<path d="M23.8526 39.2231H21.6846V41.3911H23.8526V39.2231Z" fill="black"/>
<path d="M15.1802 39.2231H13.0122V41.3911H15.1802V39.2231Z" fill="black"/>
<path d="M41.1968 39.2231H39.0288V41.3911H41.1968V39.2231Z" fill="black"/>
<path d="M49.8687 37.0551H47.7007V39.2231H49.8687V37.0551Z" fill="black"/>
<path d="M49.8687 34.887H47.7007V37.0551H49.8687V34.887Z" fill="black"/>
<path d="M49.8687 32.7189H47.7007V34.8869H49.8687V32.7189Z" fill="black"/>
<path d="M49.8687 30.5509H47.7007V32.7189H49.8687V30.5509Z" fill="black"/>
<path d="M49.8687 28.3832H47.7007V30.5512H49.8687V28.3832Z" fill="black"/>
<path d="M49.8687 26.215H47.7007V28.3831H49.8687V26.215Z" fill="black"/>
<path d="M49.8687 24.047H47.7007V26.2151H49.8687V24.047Z" fill="black"/>
<path d="M49.8687 21.879H47.7007V24.047H49.8687V21.879Z" fill="black"/>
<path d="M49.8687 19.7107H47.7007V21.8787H49.8687V19.7107Z" fill="black"/>
<path d="M49.8687 17.5428H47.7007V19.7109H49.8687V17.5428Z" fill="black"/>
<path d="M49.8687 15.3748H47.7007V17.5428H49.8687V15.3748Z" fill="black"/>
<path d="M49.8687 13.207H47.7007V15.375H49.8687V13.207Z" fill="black"/>
<path d="M49.8687 11.0388H47.7007V13.2068H49.8687V11.0388Z" fill="black"/>
<path d="M49.8687 8.87071H47.7007V11.0387H49.8687V8.87071Z" fill="black"/>
<path d="M47.7007 6.7029H45.5327V8.87092H47.7007V6.7029Z" fill="black"/>
<path d="M49.8687 0.198517H47.7007V2.36654H49.8687V0.198517Z" fill="black"/>
<path d="M6.50873 0.198517H8.67676V2.36654H6.50873V0.198517Z" fill="black"/>
<path d="M8.67621 0.198517H10.8442V2.36654H8.67621V0.198517Z" fill="black"/>
<path d="M10.8442 0.198517H13.0122V2.36654H10.8442V0.198517Z" fill="black"/>
<path d="M13.0126 0.198517H15.1807V2.36654H13.0126V0.198517Z" fill="black"/>
<path d="M15.1806 0.198517H17.3486V2.36654H15.1806V0.198517Z" fill="black"/>
<path d="M17.3486 0.198517H19.5166V2.36654H17.3486V0.198517Z" fill="black"/>
<path d="M19.5165 0.198517H21.6846V2.36654H19.5165V0.198517Z" fill="black"/>
<path d="M21.6845 0.198517H23.8525V2.36654H21.6845V0.198517Z" fill="black"/>
<path d="M23.8525 0.198517H26.0205V2.36654H23.8525V0.198517Z" fill="black"/>
<path d="M26.0209 0.198517H28.189V2.36654H26.0209V0.198517Z" fill="black"/>
<path d="M28.1889 0.198517H30.3569V2.36654H28.1889V0.198517Z" fill="black"/>
<path d="M30.3564 0.198517H32.5244V2.36654H30.3564V0.198517Z" fill="black"/>
<path d="M32.5248 0.198517H34.6929V2.36654H32.5248V0.198517Z" fill="black"/>
<path d="M34.6928 0.198517H36.8608V2.36654H34.6928V0.198517Z" fill="black"/>
<path d="M36.8608 0.198517H39.0288V2.36654H36.8608V0.198517Z" fill="black"/>
<path d="M39.0292 0.198517H41.1973V2.36654H39.0292V0.198517Z" fill="black"/>
<path d="M41.1967 0.198517H43.3647V2.36654H41.1967V0.198517Z" fill="black"/>
<path d="M43.3647 0.198517H45.5327V2.36654H43.3647V0.198517Z" fill="black"/>
<path d="M45.5327 0.198517H47.7007V2.36654H45.5327V0.198517Z" fill="black"/>
<path d="M52.0372 0.198517H49.8691V2.36654H52.0372V0.198517Z" fill="black"/>
<path d="M4.34028 0.198517H6.5083V2.36654H4.34028V0.198517Z" fill="black"/>
<path d="M54.2051 2.36681H52.0371V4.53483H54.2051V2.36681Z" fill="black"/>
<path d="M2.17231 2.36681H4.34033V4.53483H2.17231V2.36681Z" fill="black"/>
<path d="M56.3726 4.53461H54.2046V6.70263H56.3726V4.53461Z" fill="black"/>
<path d="M0.00433826 4.53461H2.17236V6.70263H0.00433826V4.53461Z" fill="black"/>
<path d="M56.3726 6.7029H54.2046V8.87092H56.3726V6.7029Z" fill="black"/>
<path d="M0.00433826 6.7029H2.17236V8.87092H0.00433826V6.7029Z" fill="black"/>
<path d="M0.00433826 8.87071H2.17236V11.0387H0.00433826V8.87071Z" fill="black"/>
<path d="M54.205 8.87071H56.373V11.0387H54.205V8.87071Z" fill="black"/>
<path d="M0.00433826 11.0388H2.17236V13.2068H0.00433826V11.0388Z" fill="black"/>
<path d="M54.205 11.0388H56.373V13.2068H54.205V11.0388Z" fill="black"/>
<path d="M0.00433826 13.207H2.17236V15.375H0.00433826V13.207Z" fill="black"/>
<path d="M54.205 13.207H56.373V15.375H54.205V13.207Z" fill="black"/>
<path d="M0.00433826 15.3748H2.17236V17.5428H0.00433826V15.3748Z" fill="black"/>
<path d="M54.205 15.3748H56.373V17.5428H54.205V15.3748Z" fill="black"/>
<path d="M0.00433826 17.5428H2.17236V19.7109H0.00433826V17.5428Z" fill="black"/>
<path d="M54.205 17.5428H56.373V19.7109H54.205V17.5428Z" fill="black"/>
<path d="M0.00433826 19.7107H2.17236V21.8787H0.00433826V19.7107Z" fill="black"/>
<path d="M54.205 19.7107H56.373V21.8787H54.205V19.7107Z" fill="black"/>
<path d="M0.00433826 21.879H2.17236V24.047H0.00433826V21.879Z" fill="black"/>
<path d="M54.205 21.879H56.373V24.047H54.205V21.879Z" fill="black"/>
<path d="M0.00433826 24.047H2.17236V26.2151H0.00433826V24.047Z" fill="black"/>
<path d="M54.205 24.047H56.373V26.2151H54.205V24.047Z" fill="black"/>
<path d="M0.00433826 26.215H2.17236V28.3831H0.00433826V26.215Z" fill="black"/>
<path d="M54.205 26.215H56.373V28.3831H54.205V26.215Z" fill="black"/>
<path d="M0.00433826 28.3832H2.17236V30.5512H0.00433826V28.3832Z" fill="black"/>
<path d="M54.205 28.3832H56.373V30.5512H54.205V28.3832Z" fill="black"/>
<path d="M0.00433826 30.5509H2.17236V32.7189H0.00433826V30.5509Z" fill="black"/>
<path d="M54.205 30.5509H56.373V32.7189H54.205V30.5509Z" fill="black"/>
<path d="M0.00433826 32.7189H2.17236V34.8869H0.00433826V32.7189Z" fill="black"/>
<path d="M54.205 32.7189H56.373V34.8869H54.205V32.7189Z" fill="black"/>
<path d="M0.00433826 34.887H2.17236V37.0551H0.00433826V34.887Z" fill="black"/>
<path d="M54.205 34.887H56.373V37.0551H54.205V34.887Z" fill="black"/>
<path d="M0.00433826 37.0551H2.17236V39.2231H0.00433826V37.0551Z" fill="black"/>
<path d="M54.205 37.0551H56.373V39.2231H54.205V37.0551Z" fill="black"/>
<path d="M0.00433826 39.2231H2.17236V41.3911H0.00433826V39.2231Z" fill="black"/>
<path d="M0.00433826 41.3911H2.17236V43.5592H0.00433826V41.3911Z" fill="black"/>
<path d="M54.205 41.3911H56.373V43.5592H54.205V41.3911Z" fill="black"/>
<path d="M0.00433826 43.5592H2.17236V45.7273H0.00433826V43.5592Z" fill="black"/>
<path d="M54.205 43.5592H56.373V45.7273H54.205V43.5592Z" fill="black"/>
<path d="M0.00433826 45.7273H2.17236V47.8953H0.00433826V45.7273Z" fill="black"/>
<path d="M54.205 45.7273H56.373V47.8953H54.205V45.7273Z" fill="black"/>
<path d="M0.00433826 47.8953H2.17236V50.0633H0.00433826V47.8953Z" fill="black"/>
<path d="M54.205 47.8953H56.373V50.0633H54.205V47.8953Z" fill="black"/>
<path d="M0.00433826 50.0631H2.17236V52.2312H0.00433826V50.0631Z" fill="black"/>
<path d="M0.00433826 52.2311H2.17236V54.3992H0.00433826V52.2311Z" fill="black"/>
<path d="M0.00433826 54.3992H2.17236V56.5672H0.00433826V54.3992Z" fill="black"/>
<path d="M2.17231 56.5672H4.34033V58.7352H2.17231V56.5672Z" fill="black"/>
<path d="M2.17231 58.7353H4.34033V60.9033H2.17231V58.7353Z" fill="black"/>
<path d="M2.17231 60.9034H4.34033V63.0714H2.17231V60.9034Z" fill="black"/>
<path d="M2.17231 63.0714H4.34033V65.2394H2.17231V63.0714Z" fill="black"/>
<path d="M2.17231 65.2394H4.34033V67.4074H2.17231V65.2394Z" fill="black"/>
<path d="M52.0366 65.2394H54.2046V67.4074H52.0366V65.2394Z" fill="black"/>
<path d="M4.34028 65.2394H6.5083V67.4074H4.34028V65.2394Z" fill="black"/>
<path d="M6.50873 65.2394H8.67676V67.4074H6.50873V65.2394Z" fill="black"/>
<path d="M8.67621 65.2394H10.8442V67.4074H8.67621V65.2394Z" fill="black"/>
<path d="M10.8442 65.2394H13.0122V67.4074H10.8442V65.2394Z" fill="black"/>
<path d="M13.0126 65.2394H15.1807V67.4074H13.0126V65.2394Z" fill="black"/>
<path d="M15.1806 65.2394H17.3486V67.4074H15.1806V65.2394Z" fill="black"/>
<path d="M17.3486 65.2394H19.5166V67.4074H17.3486V65.2394Z" fill="black"/>
<path d="M19.5165 65.2394H21.6846V67.4074H19.5165V65.2394Z" fill="black"/>
<path d="M21.6845 65.2394H23.8525V67.4074H21.6845V65.2394Z" fill="black"/>
<path d="M23.8525 65.2394H26.0205V67.4074H23.8525V65.2394Z" fill="black"/>
<path d="M26.0209 65.2394H28.189V67.4074H26.0209V65.2394Z" fill="black"/>
<path d="M28.1889 65.2394H30.3569V67.4074H28.1889V65.2394Z" fill="black"/>
<path d="M30.3564 65.2394H32.5244V67.4074H30.3564V65.2394Z" fill="black"/>
<path d="M32.5248 65.2394H34.6929V67.4074H32.5248V65.2394Z" fill="black"/>
<path d="M34.6928 65.2394H36.8608V67.4074H34.6928V65.2394Z" fill="black"/>
<path d="M36.8608 65.2394H39.0288V67.4074H36.8608V65.2394Z" fill="black"/>
<path d="M39.0292 65.2394H41.1973V67.4074H39.0292V65.2394Z" fill="black"/>
<path d="M41.1967 65.2394H43.3647V67.4074H41.1967V65.2394Z" fill="black"/>
<path d="M43.3647 65.2394H45.5327V67.4074H43.3647V65.2394Z" fill="black"/>
<path d="M45.5327 65.2394H47.7007V67.4074H45.5327V65.2394Z" fill="black"/>
<path d="M47.7011 65.2394H49.8691V67.4074H47.7011V65.2394Z" fill="black"/>
<path d="M49.8691 65.2394H52.0371V67.4074H49.8691V65.2394Z" fill="black"/>
<path d="M52.0366 63.0714H54.2046V65.2394H52.0366V63.0714Z" fill="black"/>
<path d="M52.0366 60.9034H54.2046V63.0714H52.0366V60.9034Z" fill="black"/>
<path d="M52.0366 58.7353H54.2046V60.9033H52.0366V58.7353Z" fill="black"/>
<path d="M4.34028 56.5672H6.5083V58.7352H4.34028V56.5672Z" fill="black"/>
<path d="M6.50873 56.5672H8.67676V58.7352H6.50873V56.5672Z" fill="black"/>
<path d="M8.67621 56.5672H10.8442V58.7352H8.67621V56.5672Z" fill="black"/>
<path d="M10.8442 56.5672H13.0122V58.7352H10.8442V56.5672Z" fill="black"/>
<path d="M13.0126 56.5672H15.1807V58.7352H13.0126V56.5672Z" fill="black"/>
<path d="M15.1806 56.5672H17.3486V58.7352H15.1806V56.5672Z" fill="black"/>
<path d="M17.3486 56.5672H19.5166V58.7352H17.3486V56.5672Z" fill="black"/>
<path d="M19.5165 56.5672H21.6846V58.7352H19.5165V56.5672Z" fill="black"/>
<path d="M21.6845 56.5672H23.8525V58.7352H21.6845V56.5672Z" fill="black"/>
<path d="M23.8525 56.5672H26.0205V58.7352H23.8525V56.5672Z" fill="black"/>
<path d="M26.0209 56.5672H28.189V58.7352H26.0209V56.5672Z" fill="black"/>
<path d="M28.1889 56.5672H30.3569V58.7352H28.1889V56.5672Z" fill="black"/>
<path d="M30.3564 56.5672H32.5244V58.7352H30.3564V56.5672Z" fill="black"/>
<path d="M32.5248 56.5672H34.6929V58.7352H32.5248V56.5672Z" fill="black"/>
<path d="M34.6928 56.5672H36.8608V58.7352H34.6928V56.5672Z" fill="black"/>
<path d="M36.8608 56.5672H39.0288V58.7352H36.8608V56.5672Z" fill="black"/>
<path d="M39.0292 56.5672H41.1973V58.7352H39.0292V56.5672Z" fill="black"/>
<path d="M41.1967 56.5672H43.3647V58.7352H41.1967V56.5672Z" fill="black"/>
<path d="M43.3647 56.5672H45.5327V58.7352H43.3647V56.5672Z" fill="black"/>
<path d="M45.5327 56.5672H47.7007V58.7352H45.5327V56.5672Z" fill="black"/>
<path d="M47.7011 56.5672H49.8691V58.7352H47.7011V56.5672Z" fill="black"/>
<path d="M49.8691 56.5672H52.0371V58.7352H49.8691V56.5672Z" fill="black"/>
<path d="M52.0366 56.5672H54.2046V58.7352H52.0366V56.5672Z" fill="black"/>
<path d="M54.205 50.0631H56.373V52.2312H54.205V50.0631Z" fill="black"/>
<path d="M54.205 52.2311H56.373V54.3992H54.205V52.2311Z" fill="black"/>
<path d="M54.205 54.3992H56.373V56.5672H54.205V54.3992Z" fill="black"/>
<path d="M6.50873 50.0631H8.67676V52.2312H6.50873V50.0631Z" fill="black"/>
<path d="M8.67621 50.0631H10.8442V52.2312H8.67621V50.0631Z" fill="black"/>
<path d="M45.5327 50.0631H47.7007V52.2312H45.5327V50.0631Z" fill="black"/>
<path d="M43.3647 50.0631H45.5327V52.2312H43.3647V50.0631Z" fill="black"/>
<path d="M41.1967 50.0631H43.3647V52.2312H41.1967V50.0631Z" fill="black"/>
<path d="M39.0292 50.0631H41.1973V52.2312H39.0292V50.0631Z" fill="black"/>
<path d="M36.8608 50.0631H39.0288V52.2312H36.8608V50.0631Z" fill="black"/>
<path d="M34.6928 50.0631H36.8608V52.2312H34.6928V50.0631Z" fill="black"/>
<path d="M54.205 39.2231H56.373V41.3911H54.205V39.2231Z" fill="black"/>
<path d="M45.5328 6.7029H43.3647V8.87092H45.5328V6.7029Z" fill="black"/>
<path d="M43.3653 6.7029H41.1973V8.87092H43.3653V6.7029Z" fill="black"/>
<path d="M41.1968 6.7029H39.0288V8.87092H41.1968V6.7029Z" fill="black"/>
<path d="M39.0289 6.7029H36.8608V8.87092H39.0289V6.7029Z" fill="black"/>
<path d="M36.8609 6.7029H34.6929V8.87092H36.8609V6.7029Z" fill="black"/>
<path d="M34.6924 6.7029H32.5244V8.87092H34.6924V6.7029Z" fill="black"/>
<path d="M32.525 6.7029H30.3569V8.87092H32.525V6.7029Z" fill="black"/>
<path d="M17.3487 22.9629H15.1807V25.1309H17.3487V22.9629Z" fill="black"/>
<path d="M17.3487 25.1309H15.1807V27.299H17.3487V25.1309Z" fill="black"/>
<path d="M17.3487 27.299H15.1807V29.467H17.3487V27.299Z" fill="black"/>
<path d="M21.6846 31.6351H19.5166V33.8031H21.6846V31.6351Z" fill="black"/>
<path d="M23.8525 33.8031H26.0205V35.9712H23.8525V33.8031Z" fill="black"/>
<path d="M19.5165 16.459H21.6846V18.6271H19.5165V16.459Z" fill="black"/>
<path d="M21.6845 14.2907H23.8525V16.4587H21.6845V14.2907Z" fill="black"/>
<path d="M26.0209 14.2907H28.189V16.4587H26.0209V14.2907Z" fill="black"/>
<path d="M28.1889 14.2907H30.3569V16.4587H28.1889V14.2907Z" fill="black"/>
<path d="M30.3564 14.2907H32.5244V16.4587H30.3564V14.2907Z" fill="black"/>
<path d="M39.0292 22.9629H41.1973V25.1309H39.0292V22.9629Z" fill="black"/>
<path d="M39.0292 25.1309H41.1973V27.299H39.0292V25.1309Z" fill="black"/>
<path d="M17.3486 29.467H19.5166V31.635H17.3486V29.467Z" fill="black"/>
<path d="M36.8608 29.467H39.0288V31.635H36.8608V29.467Z" fill="black"/>
<path d="M36.8608 18.6271H39.0288V20.7951H36.8608V18.6271Z" fill="black"/>
<path d="M39.0292 22.9629H41.1973V20.7949H39.0292V22.9629Z" fill="black"/>
<path d="M17.3486 18.6271H19.5166V20.7951H17.3486V18.6271Z" fill="black"/>
<path d="M39.0292 27.299H41.1973V29.467H39.0292V27.299Z" fill="black"/>
<path d="M15.1806 20.7949H17.3486V22.9629H15.1806V20.7949Z" fill="black"/>
<path d="M23.8525 14.2907H26.0205V16.4587H23.8525V14.2907Z" fill="black"/>
<path d="M32.5248 14.2907H34.6929V16.4587H32.5248V14.2907Z" fill="black"/>
<path d="M32.5248 33.8031H34.6929V35.9712H32.5248V33.8031Z" fill="black"/>
<path d="M34.6928 16.459H36.8608V18.6271H34.6928V16.459Z" fill="black"/>
<path d="M36.8608 16.459H39.0288V18.6271H36.8608V16.459Z" fill="black"/>
<path d="M17.3486 16.459H19.5166V18.6271H17.3486V16.459Z" fill="black"/>
<path d="M17.3486 31.6351H19.5166V33.8031H17.3486V31.6351Z" fill="black"/>
<path d="M36.8608 31.6351H39.0288V33.8031H36.8608V31.6351Z" fill="black"/>
<path d="M34.6928 33.8031H36.8608V35.9712H34.6928V33.8031Z" fill="black"/>
<path d="M34.6928 35.9712H36.8608V38.1392H34.6928V35.9712Z" fill="black"/>
<path d="M36.8608 35.9712H39.0288V38.1392H36.8608V35.9712Z" fill="black"/>
<path d="M39.0292 35.9712H41.1973V38.1392H39.0292V35.9712Z" fill="black"/>
<path d="M40.9999 38H43.168V40.168H40.9999V38Z" fill="black"/>
<path d="M56.3726 61.9875H54.2046V64.1555H56.3726V61.9875Z" fill="black"/>
<path d="M58.5411 59.8192H56.373V61.9873H58.5411V59.8192Z" fill="black"/>
<path d="M60.709 59.8192H58.541V61.9873H60.709V59.8192Z" fill="black"/>
<path d="M62.877 59.8192H60.709V61.9873H62.877V59.8192Z" fill="black"/>
<path d="M65.0455 57.6511H62.8774V59.8191H65.0455V57.6511Z" fill="black"/>
<path d="M67.213 57.6511H65.0449V59.8191H67.213V57.6511Z" fill="black"/>
<path d="M69.3809 57.6511H67.2129V59.8191H69.3809V57.6511Z" fill="black"/>
<path d="M71.5494 59.8192H69.3813V61.9873H71.5494V59.8192Z" fill="black"/>
<path d="M73.7173 59.8192H71.5493V61.9873H73.7173V59.8192Z" fill="black"/>
<path d="M75.8853 61.9875H73.7173V64.1555H75.8853V61.9875Z" fill="black"/>
<path d="M78.0533 64.1553H75.8853V66.3233H78.0533V64.1553Z" fill="black"/>
<path d="M78.0533 64.1553H75.8853V66.3233H78.0533V64.1553Z" fill="black"/>
<path d="M79.1378 64.1553H76.9697V66.3233H79.1378V64.1553Z" fill="black"/>
<path d="M81.3052 64.1553H79.1372V66.3233H81.3052V64.1553Z" fill="black"/>
<path d="M83.4732 64.1553H81.3052V66.3233H83.4732V64.1553Z" fill="black"/>
<path d="M85.6412 64.1553H83.4731V66.3233H85.6412V64.1553Z" fill="black"/>
<path d="M87.8096 61.9875H85.6416V64.1555H87.8096V61.9875Z" fill="black"/>
<path d="M89.9776 61.9875H87.8096V64.1555H89.9776V61.9875Z" fill="black"/>
<path d="M92.1456 59.8192H89.9775V61.9873H92.1456V59.8192Z" fill="black"/>
<path d="M94.3135 59.8192H92.1455V61.9873H94.3135V59.8192Z" fill="black"/>
<path d="M96.4815 59.8192H94.3135V61.9873H96.4815V59.8192Z" fill="black"/>
<path d="M98.6495 59.8192H96.4814V61.9873H98.6495V59.8192Z" fill="black"/>
<path d="M100.817 59.8192H98.6494V61.9873H100.817V59.8192Z" fill="black"/>
<path d="M102.986 59.8192H100.818V61.9873H102.986V59.8192Z" fill="black"/>
<path d="M104.069 59.8192H101.901V61.9873H104.069V59.8192Z" fill="black"/>
<path d="M106.238 59.8192H104.07V61.9873H106.238V59.8192Z" fill="black"/>
<path d="M108.406 59.8192H106.238V61.9873H108.406V59.8192Z" fill="black"/>
<path d="M110.574 57.6511H108.406V59.8191H110.574V57.6511Z" fill="black"/>
<path d="M112.742 55.4834H110.574V57.6514H112.742V55.4834Z" fill="black"/>
<path d="M112.742 53.3153H110.574V55.4833H112.742V53.3153Z" fill="black"/>
<path d="M110.574 51.1472H108.406V53.3153H110.574V51.1472Z" fill="black"/>
<path d="M108.406 53.3153H106.238V55.4833H108.406V53.3153Z" fill="black"/>
<path d="M108.406 55.4834H106.238V57.6514H108.406V55.4834Z" fill="black"/>
<path d="M112.742 59.8192H110.574V61.9873H112.742V59.8192Z" fill="black"/>
<path d="M112.742 59.8192H110.574V61.9873H112.742V59.8192Z" fill="black"/>
<path d="M114.91 59.8192H112.742V61.9873H114.91V59.8192Z" fill="black"/>
<path d="M117.078 61.9875H114.91V64.1555H117.078V61.9875Z" fill="black"/>
<path d="M119.246 61.9875H117.078V64.1555H119.246V61.9875Z" fill="black"/>
<path d="M121.414 61.9875H119.246V64.1555H121.414V61.9875Z" fill="black"/>
<path d="M123.582 61.9875H121.414V64.1555H123.582V61.9875Z" fill="black"/>
<path d="M125.75 61.9875H123.582V64.1555H125.75V61.9875Z" fill="black"/>
<path d="M127.918 61.9875H125.75V64.1555H127.918V61.9875Z" fill="black"/>
<path d="M130.086 61.9875H127.918V64.1555H130.086V61.9875Z" fill="black"/>
<path d="M132.254 59.8192H130.086V61.9873H132.254V59.8192Z" fill="black"/>
<path d="M134.422 61.9875H132.254V64.1555H134.422V61.9875Z" fill="black"/>
<path d="M136.59 61.9875H134.422V64.1555H136.59V61.9875Z" fill="black"/>
<path d="M138.758 61.9875H136.59V64.1555H138.758V61.9875Z" fill="black"/>
<path d="M140.926 61.9875H138.758V64.1555H140.926V61.9875Z" fill="black"/>
<path d="M143.094 61.9875H140.926V64.1555H143.094V61.9875Z" fill="black"/>
<path d="M147.43 61.9875H145.262V64.1555H147.43V61.9875Z" fill="black"/>
<path d="M145.262 61.9875H143.094V64.1555H145.262V61.9875Z" fill="black"/>
<path d="M149.598 59.8192H147.43V61.9873H149.598V59.8192Z" fill="black"/>
<path d="M151.766 57.6511H149.598V59.8191H151.766V57.6511Z" fill="black"/>
<path d="M153.934 57.6511H151.766V59.8191H153.934V57.6511Z" fill="black"/>
<path d="M158.27 57.6511H156.102V59.8191H158.27V57.6511Z" fill="black"/>
<path d="M156.102 57.6511H153.934V59.8191H156.102V57.6511Z" fill="black"/>
<path d="M169.11 57.6511H166.942V59.8191H169.11V57.6511Z" fill="black"/>
<path d="M171.278 57.6511H169.11V59.8191H171.278V57.6511Z" fill="black"/>
<path d="M173.446 57.6511H171.278V59.8191H173.446V57.6511Z" fill="black"/>
<path d="M173.446 59.8192H171.278V61.9873H173.446V59.8192Z" fill="black"/>
<path d="M175.614 59.8192H173.446V61.9873H175.614V59.8192Z" fill="black"/>
<path d="M177.782 59.8192H175.614V61.9873H177.782V59.8192Z" fill="black"/>
<path d="M179.95 59.8192H177.782V61.9873H179.95V59.8192Z" fill="black"/>
<path d="M182.119 59.8192H179.951V61.9873H182.119V59.8192Z" fill="black"/>
<path d="M184.287 61.9875H182.119V64.1555H184.287V61.9875Z" fill="black"/>
<path d="M186.455 61.9875H184.287V64.1555H186.455V61.9875Z" fill="black"/>
<path d="M188.623 61.9875H186.455V64.1555H188.623V61.9875Z" fill="black"/>
<path d="M190.791 61.9875H188.623V64.1555H190.791V61.9875Z" fill="black"/>
<path d="M192.959 61.9875H190.791V64.1555H192.959V61.9875Z" fill="black"/>
<path d="M195.127 64.1553H192.958V66.3233H195.127V64.1553Z" fill="black"/>
<path d="M197.294 64.1553H195.125V66.3233H197.294V64.1553Z" fill="black"/>
<path d="M199.463 61.9875H197.295V64.1555H199.463V61.9875Z" fill="black"/>
<path d="M201.631 61.9875H199.463V64.1555H201.631V61.9875Z" fill="black"/>
<path d="M203.799 61.9875H201.631V64.1555H203.799V61.9875Z" fill="black"/>
<path d="M205.967 64.1553H203.799V66.3233H205.967V64.1553Z" fill="black"/>
<path d="M208.135 64.1553H205.967V66.3233H208.135V64.1553Z" fill="black"/>
<path d="M210.303 64.1553H208.135V66.3233H210.303V64.1553Z" fill="black"/>
<path d="M212.471 64.1553H210.303V66.3233H212.471V64.1553Z" fill="black"/>
<path d="M214.639 64.1553H212.471V66.3233H214.639V64.1553Z" fill="black"/>
<path d="M216.807 61.9875H214.639V64.1555H216.807V61.9875Z" fill="black"/>
<path d="M218.975 61.9875H216.807V64.1555H218.975V61.9875Z" fill="black"/>
<path d="M162.606 61.9875H160.438V64.1555H162.606V61.9875Z" fill="black"/>
<path d="M164.774 64.1553H162.606V66.3233H164.774V64.1553Z" fill="black"/>
<path d="M166.942 64.1553H164.774V66.3233H166.942V64.1553Z" fill="black"/>
<path d="M169.11 61.9875H166.942V64.1555H169.11V61.9875Z" fill="black"/>
<path d="M164.774 59.8192H162.606V61.9873H164.774V59.8192Z" fill="black"/>
<path d="M166.942 59.8192H164.774V61.9873H166.942V59.8192Z" fill="black"/>
<path d="M162.606 57.6511H160.438V59.8191H162.606V57.6511Z" fill="black"/>
<path d="M160.438 57.6511H158.27V59.8191H160.438V57.6511Z" fill="black"/>
<path d="M17.3486 22.9629H19.5166V25.1309H17.3486V22.9629Z" fill="black"/>
<path d="M19.5165 22.9629H21.6846V25.1309H19.5165V22.9629Z" fill="black"/>
<path d="M21.6845 22.9629H23.8525V25.1309H21.6845V22.9629Z" fill="black"/>
<path d="M23.8525 22.9629H26.0205V25.1309H23.8525V22.9629Z" fill="black"/>
<path d="M26.0209 22.9629H28.189V25.1309H26.0209V22.9629Z" fill="black"/>
<path d="M28.1889 22.9629H30.3569V25.1309H28.1889V22.9629Z" fill="black"/>
<path d="M30.3564 20.7949H32.5244V22.9629H30.3564V20.7949Z" fill="black"/>
<path d="M32.5248 18.6271H34.6929V20.7951H32.5248V18.6271Z" fill="black"/>
<path d="M26.0209 25.1309H28.189V27.299H26.0209V25.1309Z" fill="black"/>
<path d="M23.8525 27.299H26.0205V29.467H23.8525V27.299Z" fill="black"/>
<path d="M21.6845 29.467H23.8525V31.635H21.6845V29.467Z" fill="black"/>
<path d="M26.0209 31.6351H28.189V33.8031H26.0209V31.6351Z" fill="black"/>
<path d="M32.5248 31.6351H34.6929V33.8031H32.5248V31.6351Z" fill="black"/>
<path d="M34.6928 29.467H36.8608V31.635H34.6928V29.467Z" fill="black"/>
<path d="M36.8608 27.299H39.0288V29.467H36.8608V27.299Z" fill="black"/>
<path d="M28.1889 29.467H30.3569V31.635H28.1889V29.467Z" fill="black"/>
<path d="M30.3564 27.299H32.5244V29.467H30.3564V27.299Z" fill="black"/>
<path d="M32.5248 25.1309H34.6929V27.299H32.5248V25.1309Z" fill="black"/>
<path d="M34.6928 22.9629H36.8608V25.1309H34.6928V22.9629Z" fill="black"/>
<path d="M36.8608 20.7949H39.0288V22.9629H36.8608V20.7949Z" fill="black"/>
<path d="M17.3486 27.299H19.5166V29.467H17.3486V27.299Z" fill="black"/>
<path d="M19.5165 27.299H21.6846V29.467H19.5165V27.299Z" fill="black"/>
<path d="M21.6845 27.299H23.8525V29.467H21.6845V27.299Z" fill="black"/>
<path d="M19.5165 18.6271H21.6846V20.7951H19.5165V18.6271Z" fill="black"/>
<path d="M19.5165 20.7949H21.6846V22.9629H19.5165V20.7949Z" fill="black"/>
<path d="M23.8525 16.459H26.0205V18.6271H23.8525V16.459Z" fill="black"/>
<path d="M23.8525 18.6271H26.0205V20.7951H23.8525V18.6271Z" fill="black"/>
<path d="M23.8525 20.7949H26.0205V22.9629H23.8525V20.7949Z" fill="black"/>
<path d="M28.1889 16.459H30.3569V18.6271H28.1889V16.459Z" fill="black"/>
<path d="M28.1889 18.6271H30.3569V20.7951H28.1889V18.6271Z" fill="black"/>
<path d="M28.1889 20.7949H30.3569V22.9629H28.1889V20.7949Z" fill="black"/>
<path d="M26.0209 33.8031H28.189V35.9712H26.0209V33.8031Z" fill="black"/>
<path d="M28.1889 33.8031H30.3569V35.9712H28.1889V33.8031Z" fill="black"/>
<path d="M30.3564 33.8031H32.5244V35.9712H30.3564V33.8031Z" fill="black"/>
<path d="M30.3564 33.8031H32.5244V35.9712H30.3564V33.8031Z" fill="black"/>
<path d="M34.6928 31.6351H36.8608V33.8031H34.6928V31.6351Z" fill="black"/>
<path d="M216.807 44.6429H214.639V42.4748H216.807V44.6429Z" fill="black"/>
<path d="M216.807 46.8109H214.639V44.6429H216.807V46.8109Z" fill="black"/>
<path d="M218.975 48.9789H216.807V46.8109H218.975V48.9789Z" fill="black"/>
<path d="M221.143 48.9789H218.975V46.8109H221.143V48.9789Z" fill="black"/>
<path d="M223.311 48.9789H221.143V46.8109H223.311V48.9789Z" fill="black"/>
<path d="M225.479 48.9789H223.311V46.8109H225.479V48.9789Z" fill="black"/>
<path d="M225.479 51.147H223.311V48.979H225.479V51.147Z" fill="black"/>
<path d="M227.647 53.3148H225.479V51.1467H227.647V53.3148Z" fill="black"/>
<path d="M229.815 53.3148H227.647V51.1467H229.815V53.3148Z" fill="black"/>
<path d="M229.815 55.4831H227.647V53.3151H229.815V55.4831Z" fill="black"/>
<path d="M231.983 55.4829H229.815V53.3149H231.983V55.4829Z" fill="black"/>
<path d="M227.647 55.4829H225.479V53.3149H227.647V55.4829Z" fill="black"/>
<path d="M236.319 57.6511H234.151V55.4831H236.319V57.6511Z" fill="black"/>
<path d="M234.151 57.6511H231.983V55.4831H234.151V57.6511Z" fill="black"/>
<path d="M231.983 59.8189H229.815V57.6509H231.983V59.8189Z" fill="black"/>
<path d="M229.815 61.9873H227.647V59.8192H229.815V61.9873Z" fill="black"/>
<path d="M227.647 61.987H225.479V59.8189H227.647V61.987Z" fill="black"/>
<path d="M225.479 64.1551H223.311V61.9871H225.479V64.1551Z" fill="black"/>
<path d="M227.647 64.1551H225.479V61.9871H227.647V64.1551Z" fill="black"/>
<path d="M223.311 64.1551H221.143V61.9871H223.311V64.1551Z" fill="black"/>
<path d="M223.311 61.987H221.143V59.8189H223.311V61.987Z" fill="black"/>
<path d="M225.479 59.8189H223.311V57.6509H225.479V59.8189Z" fill="black"/>
<path d="M225.479 59.8189H223.311V57.6509H225.479V59.8189Z" fill="black"/>
<path d="M227.647 57.6511H225.479V55.4831H227.647V57.6511Z" fill="black"/>
<path d="M221.143 64.1551H218.975V61.9871H221.143V64.1551Z" fill="black"/>
<path d="M240.655 59.8189H238.487V57.6509H240.655V59.8189Z" fill="black"/>
<path d="M238.487 57.6511H236.319V55.4831H238.487V57.6511Z" fill="black"/>
<path d="M236.319 55.4829H234.151V53.3149H236.319V55.4829Z" fill="black"/>
<path d="M234.151 55.4829H231.983V53.3149H234.151V55.4829Z" fill="black"/>
<path d="M238.487 64.1551H236.319V61.9871H238.487V64.1551Z" fill="black"/>
<path d="M238.487 64.1551H236.319V61.9871H238.487V64.1551Z" fill="black"/>
<path d="M238.487 64.1551H236.319V59.819H238.487V64.1551Z" fill="black"/>
<path d="M240.655 66.3231H238.487V64.1551H240.655V66.3231Z" fill="black"/>
<path d="M240.655 66.3231H238.487V64.1551H240.655V66.3231Z" fill="black"/>
<path d="M255.832 57.6511H253.664V55.4831H255.832V57.6511Z" fill="black"/>
<path d="M258 59.8189H255.832V57.6509H258V59.8189Z" fill="black"/>
<path d="M255.832 61.987H253.664V59.8189H255.832V61.987Z" fill="black"/>
<path d="M253.663 64.1551H251.495V61.9871H253.663V64.1551Z" fill="black"/>
<path d="M262.336 57.6511H260.167V55.4831H262.336V57.6511Z" fill="black"/>
<path d="M262.336 59.8189H260.167V57.6509H262.336V59.8189Z" fill="black"/>
<path d="M262.336 61.987H260.167V59.8189H262.336V61.987Z" fill="black"/>
<path d="M260.168 64.1551H258V61.9871H260.168V64.1551Z" fill="black"/>
<path d="M258 66.3231H255.832V64.1551H258V66.3231Z" fill="black"/>
<path d="M253.663 66.3231H251.495V64.1551H253.663V66.3231Z" fill="black"/>
<path d="M255.832 66.3231H253.664V64.1551H255.832V66.3231Z" fill="black"/>
<path d="M238.487 66.3231H236.319V64.1551H238.487V66.3231Z" fill="black"/>
<path d="M238.487 66.3231H236.319V64.1551H238.487V66.3231Z" fill="black"/>
<path d="M242.823 64.1551H240.655V61.9871H242.823V64.1551Z" fill="black"/>
<path d="M275.344 55.4829H273.176V53.3149H275.344V55.4829Z" fill="black"/>
<path d="M277.512 57.6511H275.344V55.4831H277.512V57.6511Z" fill="black"/>
<path d="M277.512 59.8189H275.344V57.6509H277.512V59.8189Z" fill="black"/>
<path d="M277.512 61.987H275.344V59.8189H277.512V61.987Z" fill="black"/>
<path d="M277.512 64.1551H275.344V61.9871H277.512V64.1551Z" fill="black"/>
<path d="M275.344 66.3231H273.176V64.1551H275.344V66.3231Z" fill="black"/>
<path d="M273.175 64.1551H271.007V61.9871H273.175V64.1551Z" fill="black"/>
<path d="M277.512 66.3231H275.344V64.1551H277.512V66.3231Z" fill="black"/>
<path d="M273.175 61.987H271.007V59.8189H273.175V61.987Z" fill="black"/>
<path d="M273.175 59.8189H271.007V57.6509H273.175V59.8189Z" fill="black"/>
<path d="M271.007 59.8189H268.839V57.6509H271.007V59.8189Z" fill="black"/>
<path d="M268.839 57.6511H266.671V55.4831H268.839V57.6511Z" fill="black"/>
<path d="M266.671 57.6511H264.503V55.4831H266.671V57.6511Z" fill="black"/>
<path d="M264.502 55.4829H262.334V53.3149H264.502V55.4829Z" fill="black"/>
<path d="M262.336 53.3148H260.167V51.1467H262.336V53.3148Z" fill="black"/>
<path d="M260.168 53.3148H258V51.1467H260.168V53.3148Z" fill="black"/>
<path d="M262.336 55.4829H260.167V53.3149H262.336V55.4829Z" fill="black"/>
<path d="M258 55.4829H255.832V53.3149H258V55.4829Z" fill="black"/>
<path d="M255.832 55.4829H253.664V53.3149H255.832V55.4829Z" fill="black"/>
<path d="M253.663 55.4829H251.495V53.3149H253.663V55.4829Z" fill="black"/>
<path d="M244.991 55.4829H242.823V53.3149H244.991V55.4829Z" fill="black"/>
<path d="M244.991 57.6511H242.823V55.4831H244.991V57.6511Z" fill="black"/>
<path d="M244.991 59.8189H242.823V57.6509H244.991V59.8189Z" fill="black"/>
<path d="M244.991 61.987H242.823V59.8189H244.991V61.987Z" fill="black"/>
<path d="M273.175 53.3148H271.007V51.1467H273.175V53.3148Z" fill="black"/>
<path d="M273.175 51.147H271.007V48.979H273.175V51.147Z" fill="black"/>
<path d="M271.007 48.9789H268.839V46.8109H271.007V48.9789Z" fill="black"/>
<path d="M271.007 46.8112H268.839V44.6432H271.007V46.8112Z" fill="black"/>
<path d="M258 44.6429H255.832V42.4748H258V44.6429Z" fill="black"/>
<path d="M260.168 44.6429H258V42.4748H260.168V44.6429Z" fill="black"/>
<path d="M260.168 46.8109H258V44.6429H260.168V46.8109Z" fill="black"/>
<path d="M262.336 44.6429H260.167V42.4748H262.336V44.6429Z" fill="black"/>
<path d="M262.336 46.8109H260.167V44.6429H262.336V46.8109Z" fill="black"/>
<path d="M277.512 20.7946H275.344V18.6266H277.512V20.7946Z" fill="black"/>
<path d="M279.68 20.7946H277.512V18.6266H279.68V20.7946Z" fill="black"/>
<path d="M279.68 20.7946H277.512V18.6266H279.68V20.7946Z" fill="black"/>
<path d="M264.502 46.8109H262.334V44.6429H264.502V46.8109Z" fill="black"/>
<path d="M244.991 46.8109H242.823V44.6429H244.991V46.8109Z" fill="black"/>
<path d="M244.991 44.6429H242.823V42.4748H244.991V44.6429Z" fill="black"/>
<path d="M247.159 44.6429H244.991V42.4748H247.159V44.6429Z" fill="black"/>
<path d="M247.159 42.4748H244.991V40.3068H247.159V42.4748Z" fill="black"/>
<path d="M249.327 44.6429H247.159V42.4748H249.327V44.6429Z" fill="black"/>
<path d="M251.495 53.3148H249.327V51.1467H251.495V53.3148Z" fill="black"/>
<path d="M253.663 51.147H251.495V48.979H253.663V51.147Z" fill="black"/>
<path d="M251.495 51.147H249.327V48.979H251.495V51.147Z" fill="black"/>
<path d="M251.495 51.147H249.327V48.979H251.495V51.147Z" fill="black"/>
<path d="M253.663 53.3148H251.495V51.1467H253.663V53.3148Z" fill="black"/>
<path d="M253.663 53.3148H251.495V51.1467H253.663V53.3148Z" fill="black"/>
<path d="M271.007 44.6429H268.839V42.4748H271.007V44.6429Z" fill="black"/>
<path d="M272.092 31.6346H269.924V29.4666H272.092V31.6346Z" fill="black"/>
<path d="M272.092 31.6346H269.924V29.4666H272.092V31.6346Z" fill="black"/>
<path d="M273.175 29.4668H271.007V27.2988H273.175V29.4668Z" fill="black"/>
<path d="M273.175 27.2988H271.007V25.1307H273.175V27.2988Z" fill="black"/>
<path d="M273.175 25.1307H271.007V22.9627H273.175V25.1307Z" fill="black"/>
<path d="M275.344 22.9626H273.176V20.7946H275.344V22.9626Z" fill="black"/>
<path d="M275.344 20.7946H273.176V18.6266H275.344V20.7946Z" fill="black"/>
<path d="M277.512 18.6266H275.344V16.4585H277.512V18.6266Z" fill="black"/>
<path d="M279.68 18.6266H277.512V16.4585H279.68V18.6266Z" fill="black"/>
<path d="M281.848 18.6266H279.68V16.4585H281.848V18.6266Z" fill="black"/>
<path d="M284.015 20.7946H281.847V18.6266H284.015V20.7946Z" fill="black"/>
<path d="M281.848 22.9626H279.68V20.7946H281.848V22.9626Z" fill="black"/>
<path d="M279.68 22.9626H277.512V20.7946H279.68V22.9626Z" fill="black"/>
<path d="M279.68 25.1307H277.512V22.9627H279.68V25.1307Z" fill="black"/>
<path d="M277.512 27.2988H275.344V25.1307H277.512V27.2988Z" fill="black"/>
<path d="M277.512 29.4668H275.344V27.2988H277.512V29.4668Z" fill="black"/>
<path d="M277.512 31.6346H275.344V29.4666H277.512V31.6346Z" fill="black"/>
<path d="M275.344 33.8028H273.176V31.6348H275.344V33.8028Z" fill="black"/>
<path d="M273.175 33.8028H271.007V31.6348H273.175V33.8028Z" fill="black"/>
<path d="M275.344 35.971H273.176V33.8029H275.344V35.971Z" fill="black"/>
<path d="M273.175 38.1387H271.007V35.9707H273.175V38.1387Z" fill="black"/>
<path d="M271.007 40.3068H268.839V38.1388H271.007V40.3068Z" fill="black"/>
<path d="M271.007 42.4748H268.839V40.3068H271.007V42.4748Z" fill="black"/>
<path d="M269.923 33.8028H267.755V31.6348H269.923V33.8028Z" fill="black"/>
<path d="M268.839 35.971H266.671V33.8029H268.839V35.971Z" fill="black"/>
<path d="M264.502 38.1387H262.334V35.9707H264.502V38.1387Z" fill="black"/>
<path d="M262.336 38.1387H260.167V35.9707H262.336V38.1387Z" fill="black"/>
<path d="M260.168 38.1387H258V35.9707H260.168V38.1387Z" fill="black"/>
<path d="M258 38.1387H255.832V35.9707H258V38.1387Z" fill="black"/>
<path d="M255.832 38.1387H253.664V35.9707H255.832V38.1387Z" fill="black"/>
<path d="M253.663 38.1387H251.495V35.9707H253.663V38.1387Z" fill="black"/>
<path d="M251.495 40.3068H249.327V38.1388H251.495V40.3068Z" fill="black"/>
<path d="M249.327 40.3068H247.159V38.1388H249.327V40.3068Z" fill="black"/>
<path d="M244.991 40.3068H242.823V38.1388H244.991V40.3068Z" fill="black"/>
<path d="M247.159 40.3068H244.991V38.1388H247.159V40.3068Z" fill="black"/>
<path d="M266.671 35.971H264.503V33.8029H266.671V35.971Z" fill="black"/>
<path d="M218.975 42.4748H216.807V40.3068H218.975V42.4748Z" fill="black"/>
<path d="M218.975 40.3068H216.807V38.1388H218.975V40.3068Z" fill="black"/>
<path d="M221.143 38.1387H218.975V35.9707H221.143V38.1387Z" fill="black"/>
<path d="M223.311 35.971H221.143V33.8029H223.311V35.971Z" fill="black"/>
<path d="M221.143 44.6429H218.975V42.4748H221.143V44.6429Z" fill="black"/>
<path d="M221.143 33.8028H218.975V31.6348H221.143V33.8028Z" fill="black"/>
<path d="M225.479 38.1387H223.311V35.9707H225.479V38.1387Z" fill="black"/>
<path d="M231.983 38.1387H229.815V35.9707H231.983V38.1387Z" fill="black"/>
<path d="M223.311 33.8028H221.143V31.6348H223.311V33.8028Z" fill="black"/>
<path d="M225.479 35.971H223.311V33.8029H225.479V35.971Z" fill="black"/>
<path d="M227.647 38.1387H225.479V35.9707H227.647V38.1387Z" fill="black"/>
<path d="M227.647 33.8028H225.479V31.6348H227.647V33.8028Z" fill="black"/>
<path d="M229.815 35.971H227.647V33.8029H229.815V35.971Z" fill="black"/>
<path d="M231.983 40.3068H229.815V38.1388H231.983V40.3068Z" fill="black"/>
<path d="M234.151 42.4748H231.983V40.3068H234.151V42.4748Z" fill="black"/>
<path d="M236.319 42.4748H234.151V40.3068H236.319V42.4748Z" fill="black"/>
<path d="M238.487 42.4748H236.319V40.3068H238.487V42.4748Z" fill="black"/>
<path d="M240.655 40.3068H238.487V38.1388H240.655V40.3068Z" fill="black"/>
<path d="M242.823 40.3068H240.655V38.1388H242.823V40.3068Z" fill="black"/>
<path d="M240.655 51.147H238.487V48.979H240.655V51.147Z" fill="black"/>
<path d="M242.823 53.3148H240.655V51.1467H242.823V53.3148Z" fill="black"/>
<path d="M244.991 53.3148H242.823V51.1467H244.991V53.3148Z" fill="black"/>
<path d="M247.159 55.4829H244.991V53.3149H247.159V55.4829Z" fill="black"/>
<path d="M249.327 55.4829H247.159V53.3149H249.327V55.4829Z" fill="black"/>
<path d="M251.495 55.4831H249.327V53.3151H251.495V55.4831Z" fill="black"/>
<path d="M242.823 51.147H240.655V48.979H242.823V51.147Z" fill="black"/>
</g>
<defs>
<clipPath id="clip0_891_43407">
<rect width="299.991" height="68.09" fill="white" transform="translate(0.00439453)"/>
</clipPath>
</defs>
</svg>
